# xmcd CD database file
#
# Track frame offsets:
#	150
#	19117
#	40882
#	68081
#
# Disc length: 1238 seconds
#
# Revision: 2
# Processed by: cddbd v1.5PL3 Copyright (c) Steve Scherf et al.
# Submitted via: CDex 1.50
#
DISCID=2b04d404
DTITLE=水樹奈々 - Vision of The Songs
DYEAR=2003
DGENRE=JPop
TTITLE0=FREEZE/featuring "through the night"
TTITLE1=アナタのミカタ/featuring PROTECTION"
TTITLE2=はじまりのおわり/featuring "STAND"
TTITLE3=a b y s s/featuring "deep sea"
EXTD=YEAR: 2003
EXTT0=
EXTT1=
EXTT2=
EXTT3=
PLAYORDER=
